<svg width="15" height="14" viewBox="0 0 15 14" fill="none" xmlns="http://www.w3.org/2000/svg">
<path d="M1.5 3.5H13.5" stroke="white" stroke-linecap="round" stroke-linejoin="round"/>
<path d="M3 3.5H12V12.5C12 12.7652 11.8946 13.0196 11.7071 13.2071C11.5196 13.3946 11.2652 13.5 11 13.5H4C3.73478 13.5 3.48043 13.3946 3.29289 13.2071C3.10536 13.0196 3 12.7652 3 12.5V3.5Z" stroke="white" stroke-linecap="round" stroke-linejoin="round"/>
<path d="M5 3.5V3C5 2.33696 5.26339 1.70107 5.73223 1.23223C6.20107 0.763392 6.83696 0.5 7.5 0.5C8.16304 0.5 8.79893 0.763392 9.26777 1.23223C9.73661 1.70107 10 2.33696 10 3V3.5" stroke="white" stroke-linecap="round" stroke-linejoin="round"/>
</svg>
