<svg width="16" height="16" viewBox="0 0 16 16" fill="none" xmlns="http://www.w3.org/2000/svg">
<g clip-path="url(#clip0_254_194)">
<path d="M13.7143 8.57115V6.28544C13.7143 5.98233 13.5939 5.69164 13.3795 5.47731C13.1652 5.26299 12.8745 5.14258 12.5714 5.14258H1.71427C1.41116 5.14258 1.12047 5.26299 0.906146 5.47731C0.691819 5.69164 0.571411 5.98233 0.571411 6.28544V14.2854C0.571411 14.5885 0.691819 14.8792 0.906146 15.0936C1.12047 15.3079 1.41116 15.4283 1.71427 15.4283H12.5714C12.8745 15.4283 13.1652 15.3079 13.3795 15.0936C13.5939 14.8792 13.7143 14.5885 13.7143 14.2854V11.4283" stroke="#171717" stroke-linecap="round" stroke-linejoin="round"/>
<path d="M4.38855 2.28566L10.8685 0.594229C10.9414 0.573712 11.0176 0.568163 11.0926 0.577914C11.1676 0.587665 11.2399 0.612516 11.305 0.650966C11.3702 0.689416 11.4269 0.740668 11.4717 0.801629C11.5165 0.86259 11.5485 0.931996 11.5657 1.00566L11.8857 2.28566" stroke="#171717" stroke-linecap="round" stroke-linejoin="round"/>
<path d="M14.8572 8.57129H12C11.6844 8.57129 11.4286 8.82713 11.4286 9.14272V10.857C11.4286 11.1726 11.6844 11.4284 12 11.4284H14.8572C15.1728 11.4284 15.4286 11.1726 15.4286 10.857V9.14272C15.4286 8.82713 15.1728 8.57129 14.8572 8.57129Z" stroke="#171717" stroke-linecap="round" stroke-linejoin="round"/>
</g>
<defs>
<clipPath id="clip0_254_194">
<rect width="16" height="16" fill="white"/>
</clipPath>
</defs>
</svg>
